# Blender v2.78 (sub 0) OBJ File: ''
# www.blender.org
mtllib untitled.mtl
o Shape_IndexedFaceSet.002
v 0.987942 -0.235498 -1.062129
v -0.440825 0.070580 -1.062129
v -0.338746 0.070580 -1.470445
v 0.783954 0.172738 -3.306849
v 1.090021 -0.337608 -3.511346
v 0.375977 0.070580 -0.449315
v -0.338746 -0.133438 -0.551564
v 1.294349 -0.133438 -2.592125
v 0.477717 -0.031480 -3.511346
v 0.375977 -0.235498 -0.347406
v 0.886033 -0.031479 -0.653813
v -0.338746 -0.133438 -1.266287
v -0.134418 0.172739 -1.980330
v 0.783954 0.172738 -3.715504
v 1.294349 -0.337608 -3.511346
v -0.134418 0.070580 -0.347406
v 0.987942 -0.337607 -1.878761
v 1.192270 -0.031480 -3.613256
v 0.273898 0.172738 -3.204939
v 0.681875 -0.235498 -0.347406
v 0.171819 -0.235498 -0.755722
v 1.294349 -0.337607 -2.592125
v 0.069740 0.172739 -1.674603
v 0.783954 -0.133439 -3.715504
v 0.477717 -0.031479 -0.245157
v -0.134418 -0.031479 -2.081900
v -0.440825 0.070580 -0.653813
v 0.171819 -0.133438 -0.245157
v 0.477717 0.172738 -3.613256
v 0.987942 -0.337607 -3.000442
v 1.090021 -0.133439 -3.715504
v 0.886033 -0.235498 -0.653813
vn 0.2328 -0.9674 0.1000
vn 0.2213 0.9729 0.0664
vn 0.9759 0.0850 0.2011
vn 0.4608 0.8860 0.0505
vn -0.9428 -0.2359 -0.2357
vn -0.8943 -0.4475 0.0000
vn -0.4382 -0.8765 -0.1992
vn -0.7836 0.5895 -0.1959
vn -0.0000 1.0000 -0.0000
vn 0.0000 -1.0000 0.0000
vn 0.4713 0.8810 0.0409
vn 0.4473 0.8944 -0.0000
vn 0.9530 0.2959 -0.0657
vn -0.9039 0.3036 -0.3014
vn 0.0000 -0.9978 0.0665
vn -0.1638 -0.9831 0.0819
vn -0.1960 -0.9806 0.0000
vn -0.0739 -0.9966 0.0369
vn 0.9805 0.0000 0.1964
vn 1.0000 0.0000 -0.0000
vn 0.1202 0.9914 0.0526
vn 0.0158 0.9967 0.0792
vn -0.4364 -0.8728 -0.2187
vn 0.0000 -0.7071 -0.7071
vn 0.3019 0.9044 0.3016
vn 0.0824 0.9072 0.4125
vn 0.6669 0.3334 0.6664
vn -0.9268 -0.2656 -0.2654
vn -0.5586 -0.7942 -0.2392
vn -0.9414 0.0794 -0.3278
vn -0.8738 -0.3107 -0.3742
vn -0.3163 0.9487 -0.0000
vn -0.7071 0.0006 0.7071
vn -0.0852 0.9947 0.0569
vn -0.0664 0.9956 0.0664
vn -0.2408 -0.8837 0.4013
vn -0.4868 -0.3242 0.8111
vn 0.0000 -0.7078 0.7065
vn -0.1050 0.3151 0.9432
vn 0.1165 -0.3494 0.9297
vn -0.8733 -0.2175 -0.4359
vn -0.5975 -0.3580 -0.7175
vn -0.3167 0.0000 -0.9485
vn -0.2037 -0.9782 -0.0407
vn -0.1771 -0.9840 -0.0196
vn -0.1241 -0.9923 0.0000
vn 0.4087 0.4086 -0.8161
vn 0.7070 0.0003 -0.7073
vn 0.0000 0.0000 -1.0000
vn 0.9702 0.0000 0.2422
vn 0.8322 0.0000 0.5545
vn 0.1409 -0.9856 0.0939
vn 0.7885 -0.5827 0.1968
usemtl Shape.002
s off
f 17//1 22//1 32//1
f 4//2 6//2 11//2
f 1//3 8//3 11//3
f 8//4 4//4 11//4
f 2//5 3//5 12//5
f 7//6 2//6 12//6
f 9//7 5//7 12//7
f 3//8 2//8 13//8
f 13//9 4//9 14//9
f 5//10 15//10 17//10
f 4//11 8//11 18//11
f 14//12 4//12 18//12
f 8//13 15//13 18//13
f 3//14 13//14 19//14
f 13//9 14//9 19//9
f 10//15 17//15 20//15
f 10//16 7//16 21//16
f 7//17 12//17 21//17
f 17//18 10//18 21//18
f 8//19 1//19 22//19
f 15//20 8//20 22//20
f 17//10 15//10 22//10
f 6//21 4//21 23//21
f 4//9 13//9 23//9
f 16//22 6//22 23//22
f 5//23 9//23 24//23
f 15//24 5//24 24//24
f 11//25 6//25 25//25
f 6//26 16//26 25//26
f 20//27 11//27 25//27
f 12//28 3//28 26//28
f 9//29 12//29 26//29
f 3//30 19//30 26//30
f 19//31 9//31 26//31
f 2//6 7//6 27//6
f 13//32 2//32 27//32
f 7//33 16//33 27//33
f 23//34 13//34 27//34
f 16//35 23//35 27//35
f 7//36 10//36 28//36
f 16//37 7//37 28//37
f 10//38 20//38 28//38
f 25//39 16//39 28//39
f 20//40 25//40 28//40
f 9//41 19//41 29//41
f 19//9 14//9 29//9
f 24//42 9//42 29//42
f 14//43 24//43 29//43
f 12//44 5//44 30//44
f 5//10 17//10 30//10
f 21//45 12//45 30//45
f 17//46 21//46 30//46
f 14//47 18//47 31//47
f 18//48 15//48 31//48
f 24//49 14//49 31//49
f 15//24 24//24 31//24
f 1//50 11//50 32//50
f 11//51 20//51 32//51
f 20//52 17//52 32//52
f 22//53 1//53 32//53
o Shape_IndexedFaceSet.001
v -0.031909 -0.235498 0.673694
v 2.621087 -0.235498 2.816915
v 2.621087 -0.031479 2.816915
v 1.090291 0.070580 0.061180
v -0.440825 0.070580 0.673694
v 2.825384 0.172739 2.102411
v 0.886632 -0.133438 -0.040809
v 1.906523 -0.337607 2.714636
v -0.440825 -0.133438 -0.143088
v 2.416789 -0.337607 2.612647
v 2.621087 -0.031479 1.897854
v 2.621087 0.172739 2.510368
v 1.497927 0.172739 0.673694
v 2.110821 -0.133438 2.816915
v -0.440825 0.070580 0.061180
v -0.440825 -0.133438 0.673694
v 1.090291 -0.337607 1.796154
v 0.478036 -0.235498 0.469427
v 2.008193 -0.031479 1.081941
v 0.886632 0.070580 -0.040809
v 2.825384 -0.031479 2.204111
v 2.825384 0.070580 2.612647
v 1.600556 0.172739 1.286209
v 1.192280 -0.133438 0.265448
v 1.090291 -0.337607 2.000133
v 2.723076 0.172739 1.897854
v 1.497927 -0.337607 1.897854
v 2.621087 -0.235498 2.510368
v -0.338516 -0.031479 -0.143088
v 1.804214 -0.133438 2.612647
v 2.416789 0.070580 2.612647
v 1.395938 -0.031479 0.367437
vn 0.7581 -0.0584 -0.6496
vn 0.0766 -0.9204 0.3834
vn -0.0000 1.0000 -0.0000
vn 0.0000 0.0000 1.0000
vn -0.0768 -0.3841 0.9201
vn -1.0000 -0.0000 0.0000
vn -0.0526 0.9986 -0.0000
vn -0.6561 0.0000 0.7546
vn -0.2422 -0.9702 0.0000
vn -0.0000 -1.0000 0.0000
vn -0.0414 -0.9938 -0.1034
vn 0.0143 -0.9826 -0.1851
vn -0.0260 -0.9976 -0.0648
vn 0.4478 -0.0000 -0.8941
vn 0.1206 0.9630 -0.2409
vn -0.0102 0.9911 -0.1330
vn 0.7071 0.0000 0.7072
vn 0.1373 0.8244 0.5492
vn 0.3650 0.9129 0.1828
vn 0.8614 -0.4928 0.1231
vn 1.0000 0.0000 0.0000
vn -0.0665 0.9962 0.0554
vn -0.0526 0.9986 0.0088
vn 0.1768 -0.9683 -0.1765
vn 0.4259 -0.8463 -0.3200
vn -0.2401 -0.9621 0.1291
vn -0.6578 -0.0510 0.7515
vn -0.0906 -0.9959 0.0000
vn 0.4068 0.8178 -0.4071
vn 0.7425 -0.3708 -0.5578
vn 0.8730 -0.2174 -0.4366
vn 0.7682 -0.3837 -0.5125
vn 0.1069 -0.9847 -0.1374
vn 0.0838 -0.9879 -0.1305
vn 0.0216 -0.9960 -0.0866
vn 0.4471 -0.8945 0.0000
vn 0.7066 -0.7076 0.0000
vn 0.4281 -0.8574 -0.2856
vn 0.3293 -0.9103 -0.2510
vn 0.3941 -0.8720 -0.2904
vn 0.0766 -0.0769 -0.9941
vn -0.5763 0.5782 -0.5775
vn 0.0832 -0.0000 -0.9965
vn -0.0354 0.8868 -0.4608
vn -0.6499 0.0530 0.7581
vn -0.5492 0.1366 0.8244
vn -0.2855 0.8572 0.4285
vn -0.1373 0.8244 0.5492
vn -0.2561 0.8899 0.3774
vn -0.1616 0.8087 0.5656
vn -0.2864 0.8601 0.4222
vn 0.6345 -0.2716 -0.7237
vn 0.5779 -0.5774 -0.5767
vn 0.5741 -0.6546 -0.4919
vn 0.7261 0.2036 -0.6568
usemtl Shape.001
s off
f 58//54 51//54 64//54
f 34//55 40//55 42//55
f 44//56 38//56 45//56
f 34//57 35//57 46//57
f 40//58 34//58 46//58
f 41//59 37//59 47//59
f 37//60 45//60 47//60
f 40//61 37//61 48//61
f 41//62 33//62 48//62
f 37//59 41//59 48//59
f 42//63 40//63 49//63
f 33//64 41//64 50//64
f 41//65 39//65 50//65
f 49//66 33//66 50//66
f 36//67 39//67 52//67
f 45//68 36//68 52//68
f 47//69 45//69 52//69
f 35//70 34//70 54//70
f 44//71 35//71 54//71
f 38//72 44//72 54//72
f 34//73 53//73 54//73
f 53//74 38//74 54//74
f 37//75 44//75 55//75
f 44//56 45//56 55//56
f 45//76 37//76 55//76
f 42//77 39//77 56//77
f 51//78 43//78 56//78
f 48//79 33//79 57//79
f 40//80 48//80 57//80
f 33//81 49//81 57//81
f 49//63 40//63 57//63
f 45//56 38//56 58//56
f 36//82 45//82 58//82
f 43//83 51//83 58//83
f 38//84 53//84 58//84
f 53//85 43//85 58//85
f 39//86 42//86 59//86
f 42//63 49//63 59//63
f 50//87 39//87 59//87
f 49//88 50//88 59//88
f 34//89 42//89 60//89
f 53//90 34//90 60//90
f 43//91 53//91 60//91
f 42//92 56//92 60//92
f 56//93 43//93 60//93
f 39//94 41//94 61//94
f 41//95 47//95 61//95
f 52//96 39//96 61//96
f 47//97 52//97 61//97
f 37//98 40//98 62//98
f 40//99 46//99 62//99
f 62//100 46//100 63//100
f 35//101 44//101 63//101
f 44//102 37//102 63//102
f 46//103 35//103 63//103
f 37//104 62//104 63//104
f 39//105 36//105 64//105
f 56//106 39//106 64//106
f 51//107 56//107 64//107
f 36//108 58//108 64//108
o Shape_IndexedFaceSet
v -2.277728 -0.337607 -0.040809
v -2.481686 0.070580 1.285879
v -2.481686 0.172739 1.285879
v -0.441145 0.070580 0.775484
v -1.053659 -0.031479 -0.449295
v -3.706395 0.070580 0.877563
v -3.502437 -0.337607 0.775484
v -0.441145 -0.133438 0.775484
v -0.543443 -0.235498 -0.347216
v -0.543443 0.070580 -0.142888
v -3.400458 -0.133438 0.367507
v -3.604416 0.172739 1.081551
v -3.502437 -0.031479 1.285879
v -1.461895 0.172739 0.775484
v -3.604416 -0.337607 0.469247
v -0.645423 -0.133438 0.877563
v -0.645423 -0.235498 0.163349
v -3.706395 -0.235498 0.979472
v -1.053659 -0.235498 -0.449295
v -0.441145 -0.031479 -0.244967
v -2.889923 -0.031479 1.285879
v -2.277728 -0.337607 0.265428
v -3.502437 0.172739 1.285879
v -1.563874 0.172739 1.081551
v -3.400458 0.172739 0.979472
v -3.196180 -0.133438 0.265428
v -0.951680 0.070580 0.979472
v -1.359916 -0.031479 -0.347216
v -3.400458 -0.235498 0.979472
v -3.706395 0.070580 1.081551
v -0.441145 0.070580 -0.040809
v -0.849381 -0.031479 -0.449295
vn 0.2673 0.8021 -0.5341
vn 0.0000 0.0000 1.0000
vn 0.0000 1.0000 -0.0000
vn -0.0000 -1.0000 0.0000
vn -0.7010 0.4092 -0.5841
vn 0.4470 0.0000 0.8945
vn 0.2978 -0.9528 0.0595
vn -0.3492 -0.9298 0.1163
vn -0.9810 -0.0612 -0.1838
vn 0.0309 -0.9875 -0.1543
vn 1.0000 0.0000 -0.0000
vn 0.9016 -0.4305 -0.0430
vn 0.1300 -0.5199 0.8443
vn 0.0000 -0.8324 0.5542
vn 0.0588 -0.9983 0.0000
vn 0.0706 -0.9875 0.1412
vn 0.0649 -0.9857 0.1558
vn 0.0632 -0.9979 0.0126
vn 0.0706 -0.9875 0.1411
vn 0.0995 0.9945 0.0332
vn -0.0558 0.9714 -0.2306
vn -0.1830 0.9126 -0.3656
vn -0.0130 0.9923 -0.1234
vn -0.2406 0.8428 -0.4814
vn -0.3509 -0.2095 -0.9127
vn -0.4470 0.0008 -0.8945
vn -0.3165 -0.0009 -0.9486
vn 0.1964 0.0000 0.9805
vn 0.1927 -0.1914 0.9624
vn 0.3694 0.0927 0.9246
vn 0.2066 0.3107 0.9278
vn 0.2267 0.7916 0.5674
vn -0.3162 -0.0000 -0.9487
vn -0.0999 0.9488 -0.2997
vn -0.1685 0.9018 -0.3980
vn -0.2003 0.8672 -0.4559
vn -0.3165 -0.0004 -0.9486
vn 0.0492 -0.9028 0.4273
vn 0.0000 -0.8942 0.4476
vn 0.0504 -0.8680 0.4939
vn -0.7077 0.7065 -0.0000
vn -1.0000 0.0000 0.0000
vn -0.7426 -0.2119 0.6354
vn -0.6673 0.6661 0.3331
vn -0.7077 0.0000 0.7065
vn 0.0996 0.9950 -0.0000
vn 0.0554 0.9969 -0.0555
vn 0.4075 0.8168 -0.4083
vn 0.0000 0.9488 -0.3160
vn 0.0000 -0.0000 -1.0000
vn 0.1925 -0.1927 -0.9622
vn 0.4368 0.2183 -0.8727
usemtl Shape
s off
f 74//109 84//109 96//109
f 66//110 67//110 77//110
f 76//111 67//111 78//111
f 65//112 71//112 79//112
f 70//113 75//113 79//113
f 72//114 68//114 80//114
f 73//115 72//115 81//115
f 79//116 71//116 82//116
f 70//117 79//117 82//117
f 73//118 65//118 83//118
f 68//119 72//119 84//119
f 72//120 73//120 84//120
f 66//110 77//110 85//110
f 80//121 66//121 85//121
f 77//122 82//122 85//122
f 71//112 65//112 86//112
f 65//123 73//123 86//123
f 72//124 80//124 86//124
f 80//125 71//125 86//125
f 73//126 81//126 86//126
f 81//127 72//127 86//127
f 67//111 76//111 87//111
f 77//110 67//110 87//110
f 78//111 67//111 88//111
f 68//128 78//128 88//128
f 74//129 69//129 89//129
f 70//130 76//130 89//130
f 78//131 74//131 89//131
f 76//111 78//111 89//111
f 75//132 70//132 90//132
f 65//133 79//133 90//133
f 79//134 75//134 90//134
f 83//135 65//135 90//135
f 67//136 66//136 91//136
f 66//137 80//137 91//137
f 80//138 68//138 91//138
f 88//139 67//139 91//139
f 68//140 88//140 91//140
f 69//141 83//141 92//141
f 89//142 69//142 92//142
f 70//143 89//143 92//143
f 90//144 70//144 92//144
f 83//145 90//145 92//145
f 71//146 80//146 93//146
f 82//147 71//147 93//147
f 80//148 85//148 93//148
f 85//122 82//122 93//122
f 76//149 70//149 94//149
f 70//150 82//150 94//150
f 82//151 77//151 94//151
f 87//152 76//152 94//152
f 77//153 87//153 94//153
f 78//154 68//154 95//154
f 74//155 78//155 95//155
f 68//119 84//119 95//119
f 84//156 74//156 95//156
f 69//157 74//157 96//157
f 83//158 69//158 96//158
f 73//159 83//159 96//159
f 84//160 73//160 96//160
